# xmcd
#
# Track frame offsets: 
#        150
#        15288
#        29643
#        45129
#        60838
#        74708
#        89437
#        102625
#        116067
#        132539
#        149024
#        166746
#        184832
#        203236
#        219654
#        236220
#
# Disc length: 3364 seconds
#
# Revision: 0
# Processed by: cddbd v1.5.2PL0 Copyright (c) Steve Scherf et al.
# Submitted via: ExactAudioCopyFreeDBPlugin 1.0
#
DISCID=ef0d2210
DTITLE=Jake Owen - Days of Gold
DYEAR=2013
DGENRE=Country
TTITLE0=Days of Gold
TTITLE1=Beachin'
TTITLE2=1972
TTITLE3=Ghost Town
TTITLE4=Life of the Party
TTITLE5=Good Timing
TTITLE6=Tall Glass of Something
TTITLE7=One Little Kiss (Never Killed Nobody)
TTITLE8=What We Ain't Got
TTITLE9=Tipsy
TTITLE10=Drivin' All Night
TTITLE11=Sure Feels Right
TTITLE12=After the Music's Stopped
TTITLE13=I Like You a Lot
TTITLE14=Summer Jam
TTITLE15=Surefire Feeling
EXTD=
EXTT0=
EXTT1=
EXTT2=
EXTT3=
EXTT4=
EXTT5=
EXTT6=
EXTT7=
EXTT8=
EXTT9=
EXTT10=
EXTT11=
EXTT12=
EXTT13=
EXTT14=
EXTT15=
PLAYORDER=
